<?xml version="1.0" standalone="no"?>
<!DOCTYPE svg PUBLIC "-//W3C//DTD SVG 20010904//EN"
 "http://www.w3.org/TR/2001/REC-SVG-20010904/DTD/svg10.dtd">
<svg version="1.0" xmlns="http://www.w3.org/2000/svg"
 width="256.000000pt" height="256.000000pt" viewBox="0 0 256.000000 256.000000"
 preserveAspectRatio="xMidYMid meet">
<metadata>
Created by potrace 1.14, written by Peter Selinger 2001-2017
</metadata>
<g transform="translate(0.000000,256.000000) scale(0.100000,-0.100000)"
fill="#000000" stroke="none">
<path d="M1196 2453 c-2 -2 -47 -10 -121 -20 -72 -9 -255 -74 -343 -120 -105
-56 -192 -122 -292 -222 -74 -75 -179 -221 -207 -290 -8 -20 -23 -54 -33 -76
-16 -36 -29 -73 -36 -100 -2 -5 -10 -35 -19 -65 -23 -79 -30 -148 -30 -290 1
-103 8 -215 15 -215 2 0 7 -22 15 -60 3 -16 9 -39 12 -50 4 -11 8 -25 9 -32 1
-7 9 -27 18 -44 9 -18 16 -36 16 -41 0 -17 66 -142 111 -208 38 -58 62 -87
134 -165 44 -48 157 -135 226 -176 81 -48 242 -119 269 -119 10 0 36 -7 59
-14 65 -24 145 -31 306 -30 133 2 163 6 265 32 138 37 247 86 354 159 295 200
474 488 521 838 7 48 7 205 0 265 -11 101 -15 123 -32 179 -9 31 -17 59 -17
63 -1 3 -4 10 -8 14 -5 4 -8 13 -8 21 0 28 -100 215 -158 295 -158 219 -407
380 -689 444 -55 13 -329 35 -337 27z"/>
</g>
</svg>
