<svg xmlns="http://www.w3.org/2000/svg" xmlns:xlink="http://www.w3.org/1999/xlink" viewBox="0,0,256,256" width="48px" height="48px" fill-rule="nonzero"><g fill="none" fill-rule="nonzero" stroke="none" stroke-width="1" stroke-linecap="butt" stroke-linejoin="miter" stroke-miterlimit="10" stroke-dasharray="" stroke-dashoffset="0" font-family="none" font-weight="none" font-size="none" text-anchor="none" style="mix-blend-mode: normal"><g transform="scale(5.33333,5.33333)"><path d="M24,4c-11.046,0 -20,8.954 -20,20c0,11.046 8.954,20 20,20c11.046,0 20,-8.954 20,-20c0,-11.046 -8.954,-20 -20,-20z" fill="#e50000"></path><path d="M35,16.592v-3.878l2,-1.714h-10l0.917,1.833c-1.236,0 -2.265,0 -2.265,0c0,0 -6.557,0.167 -6.557,5.915c0,5.752 5.732,5.088 5.732,5.088c0,0 0,0.865 0,1.453c0,0.594 0.77,0.391 0.864,1.583c-0.388,0 -7.964,-0.208 -7.964,4.998c0,5.206 6.679,4.959 6.679,4.959c0,0 7.722,0.365 7.722,-6.104c0,-3.871 -4.405,-5.121 -4.405,-6.686c0,-1.563 3.319,-2.012 3.319,-5.684c0,-0.823 -0.028,-1.524 -0.149,-2.12l3.107,-2.664v3.02c-0.581,0.207 -1,0.756 -1,1.408v4.5c0,0.829 0.672,1.5 1.5,1.5c0.828,0 1.5,-0.671 1.5,-1.5v-4.499c0,-0.652 -0.419,-1.201 -1,-1.408zM30.047,31.169c0.131,2.024 -1.929,3.811 -4.603,3.998c-2.671,0.188 -4.946,-1.295 -5.077,-3.316c-0.133,-2.016 1.927,-3.805 4.6,-3.996c2.674,-0.188 4.947,1.297 5.08,3.314zM26.109,22.453c-1.592,0.451 -3.375,-1.062 -3.982,-3.367c-0.604,-2.312 0.195,-4.543 1.786,-4.992c1.593,-0.453 3.374,1.059 3.981,3.367c0.605,2.309 -0.192,4.543 -1.785,4.992z" fill="#a40000"></path><path d="M34,16.592v-4.592c0,-0.051 -0.015,-0.097 -0.029,-0.143l1.029,-0.857h-14l-9,8h5.383c0.174,5.466 5.715,4.836 5.715,4.836c0,0 0,0.865 0,1.453c0,0.594 0.771,0.391 0.865,1.583c-0.388,0 -7.964,-0.208 -7.964,4.998c0,5.206 6.679,4.959 6.679,4.959c0,0 7.721,0.365 7.721,-6.104c0,-3.871 -4.404,-5.121 -4.404,-6.686c0,-1.563 3.318,-2.012 3.318,-5.684c0,-0.971 -0.047,-1.763 -0.232,-2.422l3.919,-3.266v3.925c-0.581,0.207 -1,0.756 -1,1.408v4.5c0,0.829 0.672,1.5 1.5,1.5c0.828,0 1.5,-0.671 1.5,-1.5v-4.5c0,-0.652 -0.419,-1.201 -1,-1.408zM28.319,31.169c0.131,2.024 -1.928,3.811 -4.602,3.998c-2.671,0.188 -4.946,-1.295 -5.077,-3.316c-0.133,-2.016 1.927,-3.805 4.599,-3.996c2.675,-0.188 4.948,1.297 5.08,3.314zM24.38,22.453c-1.591,0.451 -3.373,-1.062 -3.981,-3.367c-0.604,-2.312 0.194,-4.543 1.785,-4.992c1.593,-0.453 3.374,1.059 3.982,3.367c0.604,2.309 -0.193,4.543 -1.786,4.992z" fill="#e8eaf6"></path></g></g></svg>